<mxfile host="app.diagrams.net" modified="2024-03-25T09:35:52.011Z" agent="Mozilla/5.0 (Windows NT 10.0; Win64; x64) AppleWebKit/537.36 (KHTML, like Gecko) Chrome/122.0.0.0 Safari/537.36" version="22.1.16" etag="9oXKeYtJSs_Gp5fuHKTK" type="github">
  <diagram name="Page-1" id="6DZ8qb1gh009wysIlTyk">
    <mxGraphModel>
      <root>
        <mxCell id="0" />
        <mxCell id="1" parent="0" />
      </root>
    </mxGraphModel>
  </diagram>
</mxfile>
